<svg xmlns="http://www.w3.org/2000/svg" viewBox="0 0 64 64" fill="none">
  <defs>
    <linearGradient id="aurvm-blue" x1="10" y1="6" x2="54" y2="60" gradientUnits="userSpaceOnUse">
      <stop stop-color="#173A61"/>
      <stop offset="0.55" stop-color="#4D8DB8"/>
      <stop offset="1" stop-color="#CFE8F5"/>
    </linearGradient>
    <linearGradient id="aurvm-frost" x1="21" y1="13" x2="44" y2="53" gradientUnits="userSpaceOnUse">
      <stop stop-color="#FFFFFF" stop-opacity="0.98"/>
      <stop offset="0.5" stop-color="#F5FCFF" stop-opacity="0.82"/>
      <stop offset="1" stop-color="#D8F1FC" stop-opacity="0.55"/>
    </linearGradient>
    <filter id="aurvm-shadow" x="12" y="7" width="40" height="52" filterUnits="userSpaceOnUse">
      <feDropShadow dx="0" dy="3" stdDeviation="2.5" flood-color="#0C2947" flood-opacity="0.22"/>
    </filter>
  </defs>
  <rect width="64" height="64" rx="18" fill="url(#aurvm-blue)"/>
  <circle cx="15" cy="12" r="18" fill="#FFFFFF" fill-opacity="0.08"/>
  <circle cx="52" cy="53" r="21" fill="#FFFFFF" fill-opacity="0.1"/>
  <g filter="url(#aurvm-shadow)">
    <path d="M32 10 46 23.5 41.5 46 32 54 22.5 46 18 23.5 32 10Z" fill="url(#aurvm-frost)" fill-opacity="0.88"/>
    <path d="M32 10 40.5 23.5 32 31.5 23.5 23.5 32 10Z" fill="#FFFFFF" fill-opacity="0.52"/>
    <path d="m18 23.5 14 8 14-8M32 31.5V54M23.5 23.5 32 31.5l8.5-8M22.5 46 32 31.5 41.5 46" stroke="#FFFFFF" stroke-opacity="0.82" stroke-width="1.6" stroke-linecap="round" stroke-linejoin="round"/>
    <path d="M32 14.5v11M26.8 21.2l5.2 4.3 5.2-4.3" stroke="#FFFFFF" stroke-opacity="0.65" stroke-width="1.4" stroke-linecap="round"/>
  </g>
</svg>
